<svg width="32" height="32" viewBox="0 0 32 32" fill="none" xmlns="http://www.w3.org/2000/svg">
<rect width="32" height="32" rx="16" fill="#EFF5FB"/>
<g clip-path="url(#clip0)">
<path d="M24.4683 10.7133C23.8321 10.9947 23.1574 11.1795 22.4666 11.2616C23.1947 10.8261 23.7397 10.1408 23.9999 9.33327C23.3166 9.73994 22.5674 10.0249 21.7866 10.1791C21.2621 9.61792 20.5669 9.24574 19.8091 9.12043C19.0512 8.99511 18.2732 9.12368 17.596 9.48615C16.9187 9.84862 16.3802 10.4247 16.0642 11.1248C15.7481 11.8249 15.6722 12.6098 15.8483 13.3574C14.4625 13.288 13.1069 12.9279 11.8693 12.3005C10.6318 11.6731 9.54003 10.7925 8.66492 9.71577C8.35516 10.2478 8.19238 10.8526 8.19326 11.4683C8.19326 12.6766 8.80826 13.7441 9.74326 14.3691C9.18993 14.3517 8.64878 14.2023 8.16492 13.9333V13.9766C8.16509 14.7814 8.44356 15.5613 8.95313 16.1842C9.46269 16.807 10.172 17.2345 10.9608 17.3941C10.4471 17.5333 9.90851 17.5538 9.38576 17.4541C9.60814 18.1468 10.0416 18.7526 10.6254 19.1867C11.2092 19.6208 11.9142 19.8614 12.6416 19.8749C11.9187 20.4427 11.0909 20.8624 10.2057 21.1101C9.32041 21.3577 8.39503 21.4285 7.48242 21.3183C9.0755 22.3428 10.93 22.8867 12.8241 22.8849C19.2349 22.8849 22.7408 17.5741 22.7408 12.9683C22.7408 12.8183 22.7366 12.6666 22.7299 12.5183C23.4123 12.0251 24.0013 11.4141 24.4691 10.7141L24.4683 10.7133Z" fill="#333333"/>
</g>
<defs>
<clipPath id="clip0">
<rect width="18" height="18" fill="white" transform="translate(7 7)"/>
</clipPath>
</defs>
</svg>
